# xmcd
#
# Track frame offsets:
#	150
#	26821
#	39193
#	50233
#	79846
#	95478
#	110359
#	128380
#	140782
#	167374
#	180947
#	191475
#	203628
#	219562
#	232593
#	249740
#	266168
#	283889
#	297901
#	317527
#	334109
#
# Disc length: 4625 seconds
#
# Revision: 0
# Processed by: cddbd v1.5.2PL0 Copyright (c) Steve Scherf et al.
# Submitted via: EasyCDDAExtractor 15.3.0.1
#
DISCID=2c120f15
DTITLE=Safet Isović - Zapisano u Vremenu CD3
DYEAR=2009
DGENRE=SEVDALINKE
TTITLE0=Kad Sretneš Hanku
TTITLE1=Sabah Zora
TTITLE2=Đela Fato
TTITLE3=Hajro, Hajrijo, Curo Najmilija
TTITLE4=Djevo, Djevo
TTITLE5=Uzeh Đugum i Maštrafu
TTITLE6=Kono Fato
TTITLE7=Da Sam Pčela
TTITLE8=Niz Polje Idu Babo Sejmeni
TTITLE9=Hej, Kakve Ajka Crne Oči Ima
TTITLE10=Ima'l Jada K'o Kad Akšam Pada
TTITLE11=Telal Viče Po Hercegovini
TTITLE12=Od Kako Sam Sevdah Svezo
TTITLE13=Gornju Tuzlu Opasala Guja
TTITLE14=Na Mezaru Majka Plače
TTITLE15=Dilber Dika
TTITLE16=Izađi Der Fato
TTITLE17=Đul Halima
TTITLE18=Dok Je Tvoga Đula
TTITLE19=Haj, Sarajevo Znaj
TTITLE20=Na Aleji Staroj
EXTD=
EXTT0=
EXTT1=
EXTT2=
EXTT3=
EXTT4=
EXTT5=
EXTT6=
EXTT7=
EXTT8=
EXTT9=
EXTT10=
EXTT11=
EXTT12=
EXTT13=
EXTT14=
EXTT15=
EXTT16=
EXTT17=
EXTT18=
EXTT19=
EXTT20=
PLAYORDER=
